# xmcd CD database file
#
# Track frame offsets:
#	150
#	11925
#	33587
#	51600
#	74620
#	94822
#	108475
#	124567
#	138000
#	158705
#	179575
#	198695
#
# Disc length: 2795 seconds
#
# Revision: 2
# Processed by: cddbd v1.4b41PL1 Copyright (c) Steve Scherf et al.
# Submitted via: Feurio! 1.52 - http://www.feurio.com
#
DISCID=b30ae90c
DTITLE=The Black Crowes - Sister Luck
DYEAR=1900
DGENRE=
TTITLE0=Thick and Thin
TTITLE1=You're Wrong
TTITLE2=Twice As Hard
TTITLE3=Sister Luck
TTITLE4=Jealous Guy
TTITLE5=Waste And Guilty
TTITLE6=Could I've Been So Blind
TTITLE7=Hard To Handle
TTITLE8=Stare Is Cold
TTITLE9=Jelous Again
TTITLE10=Struttin Blues
TTITLE11=It's A Sin
EXTD=Live In The Studio 25/5/90 L.A/USA
EXTT0=
EXTT1=
EXTT2=
EXTT3=
EXTT4=
EXTT5=
EXTT6=
EXTT7=
EXTT8=
EXTT9=
EXTT10=
EXTT11=
PLAYORDER=
